<mxfile host="app.diagrams.net" modified="2023-06-02T00:24:35.210Z" agent="Mozilla/5.0 (Windows NT 10.0; Win64; x64) AppleWebKit/537.36 (KHTML, like Gecko) Chrome/113.0.0.0 Safari/537.36 Edg/113.0.1774.57" etag="SOaZZkvB35hvx_X77N8w" version="21.3.5" type="github">
  <diagram id="prtHgNgQTEPvFCAcTncT" name="Page-1">
    <mxGraphModel dx="1290" dy="581" grid="1" gridSize="10" guides="1" tooltips="1" connect="1" arrows="1" fold="1" page="1" pageScale="1" pageWidth="827" pageHeight="1169" math="0" shadow="0">
      <root>
        <mxCell id="0" />
        <mxCell id="1" parent="0" />
        <mxCell id="4D4lXi7kT4WF2amMB0ri-7" value="" style="group" vertex="1" connectable="0" parent="1">
          <mxGeometry x="20" y="70" width="130" height="50" as="geometry" />
        </mxCell>
        <mxCell id="4D4lXi7kT4WF2amMB0ri-1" value="" style="rounded=0;whiteSpace=wrap;html=1;" vertex="1" parent="4D4lXi7kT4WF2amMB0ri-7">
          <mxGeometry width="130" height="50" as="geometry" />
        </mxCell>
        <mxCell id="4D4lXi7kT4WF2amMB0ri-2" value="&lt;font style=&quot;font-size: 24px;&quot;&gt;：用户&lt;/font&gt;" style="text;html=1;strokeColor=none;fillColor=none;align=center;verticalAlign=middle;whiteSpace=wrap;rounded=0;" vertex="1" parent="4D4lXi7kT4WF2amMB0ri-7">
          <mxGeometry x="10" y="10" width="110" height="30" as="geometry" />
        </mxCell>
        <mxCell id="4D4lXi7kT4WF2amMB0ri-11" value="" style="group" vertex="1" connectable="0" parent="1">
          <mxGeometry x="200" y="70" width="180" height="50" as="geometry" />
        </mxCell>
        <mxCell id="4D4lXi7kT4WF2amMB0ri-9" value="" style="rounded=0;whiteSpace=wrap;html=1;container=0;" vertex="1" parent="4D4lXi7kT4WF2amMB0ri-11">
          <mxGeometry width="180" height="50" as="geometry" />
        </mxCell>
        <mxCell id="4D4lXi7kT4WF2amMB0ri-10" value="&lt;font style=&quot;font-size: 24px;&quot;&gt;：上传界面&lt;/font&gt;" style="text;html=1;strokeColor=none;fillColor=none;align=center;verticalAlign=middle;whiteSpace=wrap;rounded=0;container=0;" vertex="1" parent="4D4lXi7kT4WF2amMB0ri-11">
          <mxGeometry x="10" y="10" width="160" height="30" as="geometry" />
        </mxCell>
        <mxCell id="4D4lXi7kT4WF2amMB0ri-12" value="" style="endArrow=none;dashed=1;html=1;rounded=0;entryX=0.5;entryY=1;entryDx=0;entryDy=0;" edge="1" parent="1" target="4D4lXi7kT4WF2amMB0ri-1">
          <mxGeometry width="50" height="50" relative="1" as="geometry">
            <mxPoint x="85" y="200" as="sourcePoint" />
            <mxPoint x="440" y="270" as="targetPoint" />
          </mxGeometry>
        </mxCell>
        <mxCell id="4D4lXi7kT4WF2amMB0ri-14" value="" style="shape=ext;double=1;rounded=0;whiteSpace=wrap;html=1;" vertex="1" parent="1">
          <mxGeometry x="80" y="200" width="10" height="260" as="geometry" />
        </mxCell>
        <mxCell id="4D4lXi7kT4WF2amMB0ri-16" value="" style="endArrow=none;dashed=1;html=1;rounded=0;entryX=0.5;entryY=1;entryDx=0;entryDy=0;" edge="1" parent="1" target="4D4lXi7kT4WF2amMB0ri-9">
          <mxGeometry width="50" height="50" relative="1" as="geometry">
            <mxPoint x="290" y="200" as="sourcePoint" />
            <mxPoint x="320" y="160" as="targetPoint" />
          </mxGeometry>
        </mxCell>
        <mxCell id="4D4lXi7kT4WF2amMB0ri-17" value="" style="shape=ext;double=1;rounded=0;whiteSpace=wrap;html=1;" vertex="1" parent="1">
          <mxGeometry x="285" y="200" width="10" height="80" as="geometry" />
        </mxCell>
        <mxCell id="4D4lXi7kT4WF2amMB0ri-18" value="" style="endArrow=classic;html=1;rounded=0;exitX=1;exitY=0;exitDx=0;exitDy=0;entryX=0;entryY=0;entryDx=0;entryDy=0;" edge="1" parent="1" source="4D4lXi7kT4WF2amMB0ri-14" target="4D4lXi7kT4WF2amMB0ri-17">
          <mxGeometry width="50" height="50" relative="1" as="geometry">
            <mxPoint x="390" y="320" as="sourcePoint" />
            <mxPoint x="440" y="270" as="targetPoint" />
          </mxGeometry>
        </mxCell>
        <mxCell id="4D4lXi7kT4WF2amMB0ri-19" value="扫描二维码" style="text;html=1;strokeColor=none;fillColor=none;align=center;verticalAlign=middle;whiteSpace=wrap;rounded=0;" vertex="1" parent="1">
          <mxGeometry x="120" y="180" width="120" height="20" as="geometry" />
        </mxCell>
        <mxCell id="4D4lXi7kT4WF2amMB0ri-20" value="" style="group" vertex="1" connectable="0" parent="1">
          <mxGeometry x="420" y="70" width="180" height="50" as="geometry" />
        </mxCell>
        <mxCell id="4D4lXi7kT4WF2amMB0ri-21" value="" style="rounded=0;whiteSpace=wrap;html=1;container=0;" vertex="1" parent="4D4lXi7kT4WF2amMB0ri-20">
          <mxGeometry width="180" height="50" as="geometry" />
        </mxCell>
        <mxCell id="4D4lXi7kT4WF2amMB0ri-22" value="&lt;font style=&quot;font-size: 24px;&quot;&gt;：预览页面&lt;/font&gt;" style="text;html=1;strokeColor=none;fillColor=none;align=center;verticalAlign=middle;whiteSpace=wrap;rounded=0;container=0;" vertex="1" parent="4D4lXi7kT4WF2amMB0ri-20">
          <mxGeometry x="10" y="10" width="160" height="30" as="geometry" />
        </mxCell>
        <mxCell id="4D4lXi7kT4WF2amMB0ri-24" value="" style="endArrow=none;dashed=1;html=1;rounded=0;entryX=0.5;entryY=1;entryDx=0;entryDy=0;exitX=0.5;exitY=0;exitDx=0;exitDy=0;" edge="1" parent="1" source="4D4lXi7kT4WF2amMB0ri-25">
          <mxGeometry width="50" height="50" relative="1" as="geometry">
            <mxPoint x="510" y="270" as="sourcePoint" />
            <mxPoint x="515" y="120" as="targetPoint" />
          </mxGeometry>
        </mxCell>
        <mxCell id="4D4lXi7kT4WF2amMB0ri-25" value="" style="shape=ext;double=1;rounded=0;whiteSpace=wrap;html=1;" vertex="1" parent="1">
          <mxGeometry x="510" y="280" width="10" height="50" as="geometry" />
        </mxCell>
        <mxCell id="4D4lXi7kT4WF2amMB0ri-26" value="" style="endArrow=none;dashed=1;html=1;rounded=0;entryX=0.5;entryY=1;entryDx=0;entryDy=0;" edge="1" parent="1" target="4D4lXi7kT4WF2amMB0ri-25">
          <mxGeometry width="50" height="50" relative="1" as="geometry">
            <mxPoint x="515" y="550" as="sourcePoint" />
            <mxPoint x="517" y="340" as="targetPoint" />
          </mxGeometry>
        </mxCell>
        <mxCell id="4D4lXi7kT4WF2amMB0ri-27" value="" style="endArrow=classic;html=1;rounded=0;exitX=1;exitY=0;exitDx=0;exitDy=0;" edge="1" parent="1">
          <mxGeometry width="50" height="50" relative="1" as="geometry">
            <mxPoint x="295" y="280" as="sourcePoint" />
            <mxPoint x="510" y="280" as="targetPoint" />
          </mxGeometry>
        </mxCell>
        <mxCell id="4D4lXi7kT4WF2amMB0ri-28" value="点击预览" style="text;html=1;strokeColor=none;fillColor=none;align=center;verticalAlign=middle;whiteSpace=wrap;rounded=0;" vertex="1" parent="1">
          <mxGeometry x="370" y="260" width="60" height="20" as="geometry" />
        </mxCell>
        <mxCell id="4D4lXi7kT4WF2amMB0ri-29" value="" style="group" vertex="1" connectable="0" parent="1">
          <mxGeometry x="640" y="70" width="130" height="50" as="geometry" />
        </mxCell>
        <mxCell id="4D4lXi7kT4WF2amMB0ri-30" value="" style="rounded=0;whiteSpace=wrap;html=1;" vertex="1" parent="4D4lXi7kT4WF2amMB0ri-29">
          <mxGeometry width="130" height="50" as="geometry" />
        </mxCell>
        <mxCell id="4D4lXi7kT4WF2amMB0ri-31" value="&lt;font style=&quot;font-size: 24px;&quot;&gt;：支付&lt;/font&gt;" style="text;html=1;strokeColor=none;fillColor=none;align=center;verticalAlign=middle;whiteSpace=wrap;rounded=0;" vertex="1" parent="4D4lXi7kT4WF2amMB0ri-29">
          <mxGeometry x="10" y="10" width="110" height="30" as="geometry" />
        </mxCell>
        <mxCell id="4D4lXi7kT4WF2amMB0ri-32" value="" style="endArrow=none;dashed=1;html=1;rounded=0;entryX=0.5;entryY=1;entryDx=0;entryDy=0;exitX=0.5;exitY=0;exitDx=0;exitDy=0;" edge="1" parent="1" source="4D4lXi7kT4WF2amMB0ri-33">
          <mxGeometry width="50" height="50" relative="1" as="geometry">
            <mxPoint x="705" y="200" as="sourcePoint" />
            <mxPoint x="705" y="120" as="targetPoint" />
          </mxGeometry>
        </mxCell>
        <mxCell id="4D4lXi7kT4WF2amMB0ri-33" value="" style="shape=ext;double=1;rounded=0;whiteSpace=wrap;html=1;" vertex="1" parent="1">
          <mxGeometry x="700" y="330" width="10" height="130" as="geometry" />
        </mxCell>
        <mxCell id="4D4lXi7kT4WF2amMB0ri-35" value="" style="endArrow=none;dashed=1;html=1;rounded=0;" edge="1" parent="1">
          <mxGeometry width="50" height="50" relative="1" as="geometry">
            <mxPoint x="705" y="550" as="sourcePoint" />
            <mxPoint x="705" y="460" as="targetPoint" />
          </mxGeometry>
        </mxCell>
        <mxCell id="4D4lXi7kT4WF2amMB0ri-37" value="" style="endArrow=classic;html=1;rounded=0;exitX=1;exitY=1;exitDx=0;exitDy=0;entryX=0;entryY=0;entryDx=0;entryDy=0;" edge="1" parent="1" source="4D4lXi7kT4WF2amMB0ri-25" target="4D4lXi7kT4WF2amMB0ri-33">
          <mxGeometry width="50" height="50" relative="1" as="geometry">
            <mxPoint x="580" y="410" as="sourcePoint" />
            <mxPoint x="630" y="360" as="targetPoint" />
          </mxGeometry>
        </mxCell>
        <mxCell id="4D4lXi7kT4WF2amMB0ri-38" value="" style="endArrow=none;dashed=1;html=1;rounded=0;" edge="1" parent="1">
          <mxGeometry width="50" height="50" relative="1" as="geometry">
            <mxPoint x="85" y="550" as="sourcePoint" />
            <mxPoint x="85" y="460" as="targetPoint" />
          </mxGeometry>
        </mxCell>
        <mxCell id="4D4lXi7kT4WF2amMB0ri-39" value="" style="endArrow=none;dashed=1;html=1;rounded=0;entryX=0.5;entryY=1;entryDx=0;entryDy=0;" edge="1" parent="1" target="4D4lXi7kT4WF2amMB0ri-17">
          <mxGeometry width="50" height="50" relative="1" as="geometry">
            <mxPoint x="290" y="550" as="sourcePoint" />
            <mxPoint x="300" y="360" as="targetPoint" />
          </mxGeometry>
        </mxCell>
        <mxCell id="4D4lXi7kT4WF2amMB0ri-40" value="生成订单" style="text;html=1;strokeColor=none;fillColor=none;align=center;verticalAlign=middle;whiteSpace=wrap;rounded=0;" vertex="1" parent="1">
          <mxGeometry x="580" y="300" width="60" height="30" as="geometry" />
        </mxCell>
      </root>
    </mxGraphModel>
  </diagram>
</mxfile>
